<?xml version="1.0" encoding="utf-8"?>
<!-- Generator: Adobe Illustrator 26.0.1, SVG Export Plug-In . SVG Version: 6.00 Build 0)  -->
<svg version="1.1" id="Layer_1" xmlns="http://www.w3.org/2000/svg" xmlns:xlink="http://www.w3.org/1999/xlink" x="0px" y="0px"
	 viewBox="0 0 2869.5 2882.4" style="enable-background:new 0 0 2869.5 2882.4;" xml:space="preserve">
<style type="text/css">
	.st0{fill:url(#SVGID_1_);}
	.st1{fill:url(#SVGID_00000032626906210670126280000009212199940829903510_);}
	.st2{fill:#FFFFFF;}
	.st3{display:none;}
	.st4{display:inline;fill:#FFFFFF;}
	.st5{fill:url(#SVGID_00000103980665521474857420000011224326067398045345_);}
	.st6{fill:#C77FA7;}
</style>
<g>
	<linearGradient id="SVGID_1_" gradientUnits="userSpaceOnUse" x1="2385.3767" y1="874.8035" x2="693.605" y2="1851.5483">
		<stop  offset="1.438503e-07" style="stop-color:#58C3E9"/>
		<stop  offset="0.1507" style="stop-color:#588DA7"/>
		<stop  offset="0.3078" style="stop-color:#506073"/>
		<stop  offset="0.4629" style="stop-color:#443F4E"/>
		<stop  offset="0.6123" style="stop-color:#382734"/>
		<stop  offset="0.7548" style="stop-color:#2E1723"/>
		<stop  offset="0.8873" style="stop-color:#270D1A"/>
		<stop  offset="1" style="stop-color:#250A16"/>
	</linearGradient>
	<circle class="st0" cx="1539.5" cy="1363.2" r="976.6"/>
</g>
<g>
	
		<linearGradient id="SVGID_00000059288251940933883040000010710813201409991559_" gradientUnits="userSpaceOnUse" x1="2334.51" y1="899.5897" x2="744.4723" y2="1817.5983">
		<stop  offset="1.438503e-07" style="stop-color:#58C3E9"/>
		<stop  offset="0.1507" style="stop-color:#588DA7"/>
		<stop  offset="0.3078" style="stop-color:#506073"/>
		<stop  offset="0.4629" style="stop-color:#443F4E"/>
		<stop  offset="0.6123" style="stop-color:#382734"/>
		<stop  offset="0.7548" style="stop-color:#2E1723"/>
		<stop  offset="0.8873" style="stop-color:#270D1A"/>
		<stop  offset="1" style="stop-color:#250A16"/>
	</linearGradient>
	<path style="fill:url(#SVGID_00000059288251940933883040000010710813201409991559_);" d="M942.5,2058.2c-27.3,0-53-10.7-72.5-30.2
		s-30.2-45.2-30.2-72.5V761.6c0-27.3,10.7-53,30.2-72.5c19.5-19.5,45.2-30.2,72.5-30.2h1193.9c27.3,0,53,10.7,72.5,30.2
		c19.5,19.5,30.2,45.2,30.2,72.5v1193.9c0,27.3-10.7,53-30.2,72.5s-45.2,30.2-72.5,30.2H942.5z"/>
	<path class="st2" d="M2136.4,684c20.6,0,40.1,8.1,54.8,22.8c14.7,14.7,22.8,34.2,22.8,54.8v1193.9c0,20.6-8.1,40.1-22.8,54.8
		c-14.7,14.7-34.2,22.8-54.8,22.8H942.5c-20.6,0-40.1-8.1-54.8-22.8c-14.7-14.7-22.8-34.2-22.8-54.8V761.6
		c0-20.6,8.1-40.1,22.8-54.8c14.7-14.7,34.2-22.8,54.8-22.8H2136.4 M2136.4,634H942.5c-70.2,0-127.6,57.4-127.6,127.6v1193.9
		c0,70.2,57.4,127.6,127.6,127.6h1193.9c70.2,0,127.6-57.4,127.6-127.6V761.6C2264.1,691.4,2206.6,634,2136.4,634L2136.4,634z"/>
</g>
<g class="st3">
	<path class="st4" d="M2251.6,1684.8c93.7,0,184.5,18.3,270,54.5c41.1,17.4,80.7,38.9,117.8,63.9c36.7,24.8,71.3,53.3,102.7,84.7
		c31.4,31.4,59.9,65.9,84.7,102.7c25,37.1,46.6,76.7,63.9,117.8c36.2,85.5,54.5,176.3,54.5,270c0,93.7-18.3,184.5-54.5,270
		c-17.4,41.1-38.9,80.7-63.9,117.8c-24.8,36.7-53.3,71.3-84.7,102.7c-31.4,31.4-65.9,59.9-102.7,84.7c-37.1,25-76.7,46.6-117.8,63.9
		c-85.5,36.2-176.3,54.5-270,54.5c-93.7,0-184.5-18.3-270-54.5c-41.1-17.4-80.7-38.9-117.8-63.9c-36.7-24.8-71.3-53.3-102.7-84.7
		c-31.4-31.4-59.9-65.9-84.7-102.7c-25-37.1-46.6-76.7-63.9-117.8c-36.2-85.5-54.5-176.3-54.5-270c0-93.7,18.3-184.5,54.5-270
		c17.4-41.1,38.9-80.7,63.9-117.8c24.8-36.7,53.3-71.3,84.7-102.7c31.4-31.4,65.9-59.9,102.7-84.7c37.1-25,76.7-46.6,117.8-63.9
		C2067.2,1703.1,2158,1684.8,2251.6,1684.8 M2251.6,1634.8c-410.7,0-743.6,332.9-743.6,743.6s332.9,743.6,743.6,743.6
		s743.6-332.9,743.6-743.6S2662.3,1634.8,2251.6,1634.8L2251.6,1634.8z"/>
</g>
<linearGradient id="SVGID_00000017481101076780328200000002512534070145401754_" gradientUnits="userSpaceOnUse" x1="1477.5225" y1="1316.0543" x2="725.9825" y2="1749.9562">
	<stop  offset="1.065558e-08" style="stop-color:#E0EAF8"/>
	<stop  offset="0.1084" style="stop-color:#EEF3FC"/>
	<stop  offset="0.2491" style="stop-color:#F8FAFE"/>
	<stop  offset="0.4472" style="stop-color:#FEFEFF"/>
	<stop  offset="0.9972" style="stop-color:#FFFFFF"/>
</linearGradient>
<path style="fill:url(#SVGID_00000017481101076780328200000002512534070145401754_);" d="M986.4,1013.2
	c-37.7-22.6-91.3-48.5-130.2-64.3c-5.5,8.8,6.5,26.2,6.5,37.3v982.6c0,37.8,30.6,68.4,74,68.4h468.7c24.9,0,49.7-3.3,73.7-10.1
	c136.5-39.2,234.9-143.2,261.5-254.6C1568.4,1460.6,1303.4,1203.4,986.4,1013.2z"/>
<path class="st6" d="M1787.1,1653c5.1-21.4,7.6-43.2,7.2-64.8c-2.5-122.7-93-205.7-114.7-224.7c7.8-6.7,140.5-123.9,114.4-288.9
	c-22.2-140.7-149.9-254.4-309.8-265.2H966.4c-20.5,0-38.4,10.7-48.5,26.9c39,15.8,77.3,34.7,115,57.3
	C1349.9,1083.9,1614.9,1341.1,1787.1,1653z"/>
</svg>
