<?xml version="1.0" encoding="utf-8"?>
<!-- Generator: Adobe Illustrator 26.0.1, SVG Export Plug-In . SVG Version: 6.00 Build 0)  -->
<svg version="1.1" id="Layer_1" xmlns="http://www.w3.org/2000/svg" xmlns:xlink="http://www.w3.org/1999/xlink" x="0px" y="0px"
	 viewBox="0 0 1000 1000" style="enable-background:new 0 0 1000 1000;" xml:space="preserve">
<style type="text/css">
	.st0{fill:url(#SVGID_1_);}
	.st1{fill:#C77FA7;}
</style>
<linearGradient id="SVGID_1_" gradientUnits="userSpaceOnUse" x1="610.2743" y1="449.0729" x2="63.1386" y2="764.9618">
	<stop  offset="1.065558e-08" style="stop-color:#E0EAF8"/>
	<stop  offset="0.1084" style="stop-color:#EEF3FC"/>
	<stop  offset="0.2491" style="stop-color:#F8FAFE"/>
	<stop  offset="0.4472" style="stop-color:#FEFEFF"/>
	<stop  offset="0.9972" style="stop-color:#FFFFFF"/>
</linearGradient>
<path class="st0" d="M252.7,228.6c-27.4-16.5-66.4-35.3-94.8-46.8c-4,6.4,4.8,19,4.8,27.2v715.3c0,27.5,22.3,49.8,53.9,49.8h341.3
	c18.1,0,36.2-2.4,53.6-7.4c99.4-28.5,171-104.2,190.4-185.3C676.4,554.3,483.5,367.1,252.7,228.6z"/>
<path class="st1" d="M835.7,694.3c3.7-15.6,5.5-31.4,5.2-47.1c-1.8-89.3-67.7-149.8-83.5-163.6c5.7-4.9,102.3-90.2,83.3-210.4
	C824.5,170.9,731.6,88.1,615.1,80.2h-377c-14.9,0-28,7.8-35.3,19.6c28.4,11.5,56.3,25.3,83.7,41.7
	C517.4,280.1,710.3,467.3,835.7,694.3z"/>
</svg>
